<?xml version="1.0" encoding="utf-8"?>
<!-- Generator: Adobe Illustrator 22.1.0, SVG Export Plug-In . SVG Version: 6.00 Build 0)  -->
<svg version="1.1" id="Layer_1" xmlns="http://www.w3.org/2000/svg" xmlns:xlink="http://www.w3.org/1999/xlink" x="0px" y="0px"
	 viewBox="0 0 409.7 288" style="enable-background:new 0 0 409.7 288;" xml:space="preserve">
<style type="text/css">
	.st0{fill:#FFFFFF;}
</style>
<title>borzoi</title>
<path class="st0" d="M0,188.1h24.1c2.9,0,5.9,0.3,8.7,1.1c2.4,0.6,4.7,1.6,6.8,3c1.8,1.2,3.3,2.8,4.4,4.6c1.1,1.8,1.6,3.9,1.6,6
	c0,1.5-0.2,2.9-0.5,4.4c-0.4,1.3-1,2.5-1.8,3.5c-0.9,1.2-2.1,2.3-3.3,3.1c-1.7,1.1-3.4,2.2-5.3,3v0.2c2,0.3,3.9,0.9,5.8,1.7
	c1.7,0.8,3.2,1.8,4.4,3.1c1.2,1.2,2.2,2.7,2.8,4.4c0.7,1.7,1,3.6,1,5.5c0,2.2-0.5,4.4-1.5,6.3c-1,2-2.4,3.8-4.2,5.1
	c-2,1.5-4.2,2.7-6.6,3.4c-2.8,0.9-5.7,1.3-8.6,1.2H0V188.1z M10,214.9h12.8c1.8,0,3.6-0.3,5.4-0.9c1.5-0.5,2.8-1.3,4-2.4
	c1.1-1,1.9-2.2,2.4-3.6c0.6-1.4,0.9-3,0.8-4.5c0-1.6-0.3-3.3-1-4.8c-0.7-1.5-1.8-2.7-3.1-3.7c-1.6-1.1-3.4-1.9-5.3-2.3
	c-2.5-0.6-5.1-0.9-7.7-0.8H10L10,214.9z M10,243.4h10.8c2.6,0,5.1-0.2,7.6-0.8c1.9-0.5,3.7-1.2,5.3-2.3c1.3-0.9,2.4-2.2,3.1-3.6
	c0.7-1.5,1-3,1-4.6c0-1.8-0.3-3.6-0.9-5.3c-0.6-1.6-1.7-3.1-3-4.2c-1.6-1.3-3.4-2.3-5.4-2.8c-2.6-0.7-5.4-1.1-8.1-1H10L10,243.4z"/>
<path class="st0" d="M124.9,240c-2.1,2.1-4.5,4-7.1,5.5c-2.5,1.4-5.1,2.6-7.8,3.3c-2.7,0.7-5.4,1.2-8.2,1.2
	c-2.7,0.1-5.5-0.3-8.1-0.9c-2.7-0.7-5.2-1.7-7.6-3c-2.5-1.4-4.8-3.1-6.8-5.1c-2-2-3.7-4.2-5-6.6c-2.6-4.7-3.9-10.1-3.7-15.5
	c0.1-2.7,0.5-5.5,1.3-8.1c0.8-2.7,1.9-5.3,3.4-7.8c3.1-5.1,7.4-9.5,12.5-12.5c4.8-2.9,10.3-4.5,15.9-4.7c2.7-0.1,5.4,0.2,8,0.8
	c2.6,0.6,5.1,1.6,7.5,2.9c2.4,1.3,4.7,3,6.6,5c2,2,3.7,4.3,5.1,6.7c1.3,2.4,2.4,5,3,7.6c0.7,2.7,1,5.4,0.9,8.1
	c0,2.8-0.5,5.5-1.2,8.2c-0.8,2.7-1.9,5.4-3.3,7.8C128.8,235.6,127,237.9,124.9,240z M122.8,237.9c2.3-2.2,3.9-4.9,4.9-7.9
	c0.8-2.9,1-5.9,0.5-8.9c-0.6-3.3-1.8-6.4-3.5-9.3c-2-3.3-4.4-6.4-7.1-9.1c-2.7-2.7-5.7-5.1-9-7c-2.8-1.7-5.9-2.8-9.1-3.4
	c-2.9-0.5-5.9-0.3-8.8,0.6c-3,1-5.7,2.7-7.9,4.9c-2.3,2.2-4,5-5,8c-0.9,2.8-1.1,5.8-0.6,8.8c0.6,3.2,1.7,6.3,3.4,9.1
	c1.9,3.3,4.3,6.3,7,8.9c2.7,2.8,5.8,5.2,9.1,7.2c2.8,1.7,6,2.9,9.2,3.6C112.1,244.6,118.5,242.5,122.8,237.9L122.8,237.9z"/>
<path class="st0" d="M162.2,188.1h20.7c3.2-0.1,6.4,0.3,9.5,1.2c2.4,0.6,4.7,1.7,6.8,3.2c1.7,1.3,3.1,3,4.1,4.9
	c0.9,1.9,1.4,4.1,1.4,6.2c0,1.8-0.3,3.6-1,5.2c-0.7,1.6-1.7,3.1-3,4.4c-1.4,1.4-2.9,2.5-4.6,3.4c-1.9,1-3.9,1.7-6,2.2l21.7,29H200
	l-20.7-28.1h-7v28h-10L162.2,188.1z M172.2,216.7h5.8c2.1,0,4.2-0.3,6.2-0.9c1.8-0.6,3.5-1.4,5-2.6c2.9-2.2,4.5-5.6,4.5-9.3
	c0-1.7-0.3-3.4-0.9-4.9c-0.6-1.5-1.5-2.8-2.6-3.9c-1.2-1.1-2.5-1.9-4-2.5c-1.6-0.6-3.3-0.9-5.1-0.9h-8.8L172.2,216.7z"/>
<path class="st0" d="M290.5,188.3l-43,55.6h43v3.8H234v-1.5l41.7-54.1H234v-3.8L290.5,188.3z"/>
<path class="st0" d="M362.4,240c-2.1,2.1-4.5,4-7.1,5.5c-2.5,1.4-5.1,2.6-7.8,3.3c-2.7,0.7-5.4,1.2-8.2,1.2
	c-2.7,0.1-5.5-0.3-8.1-0.9c-2.7-0.7-5.2-1.7-7.6-3c-2.5-1.4-4.8-3.1-6.8-5.1c-2-2-3.7-4.2-5-6.6c-2.6-4.7-3.9-10.1-3.7-15.5
	c0.1-2.7,0.5-5.5,1.3-8.1c0.8-2.7,1.9-5.3,3.4-7.8c3.1-5.1,7.4-9.5,12.5-12.5c2.4-1.4,5-2.6,7.8-3.4c2.6-0.8,5.4-1.2,8.1-1.3
	c2.7-0.1,5.4,0.2,8,0.8c2.6,0.6,5.1,1.6,7.5,2.9c2.4,1.3,4.7,3,6.6,5c2,2,3.7,4.3,5.1,6.7c1.3,2.4,2.3,5,3,7.6
	c0.7,2.7,1,5.4,0.9,8.1c0,2.8-0.5,5.5-1.2,8.2c-0.8,2.7-1.9,5.4-3.3,7.8C366.3,235.6,364.5,237.9,362.4,240z M360.2,237.9
	c2.3-2.2,3.9-4.9,4.9-7.9c0.8-2.9,1-5.9,0.5-8.9c-0.6-3.3-1.8-6.4-3.5-9.3c-2-3.3-4.4-6.4-7.1-9.1c-2.7-2.7-5.7-5.1-8.9-7
	c-2.8-1.7-5.9-2.8-9.1-3.4c-2.9-0.5-5.9-0.3-8.8,0.6c-3,1-5.7,2.7-7.8,4.9c-2.3,2.2-4,5-5,8c-0.9,2.8-1.1,5.8-0.6,8.8
	c0.6,3.2,1.7,6.3,3.4,9.1c1.9,3.3,4.3,6.3,7,8.9c2.7,2.8,5.8,5.2,9.1,7.2c2.8,1.7,6,2.9,9.2,3.6c3,0.6,6,0.4,8.9-0.5
	C355.3,241.9,358,240.2,360.2,237.9L360.2,237.9z"/>
<path class="st0" d="M399.7,188.1h10v59.7h-10V188.1z"/>
<path class="st0" d="M172.6,281.6c-0.3,0.2-0.6,0.4-0.9,0.6c-0.3,0.2-0.6,0.3-1,0.4c-0.3,0.1-0.7,0.2-1,0.3c-0.3,0.1-0.7,0.1-1,0.1
	c-0.7,0-1.3-0.2-1.9-0.5c-0.6-0.3-1.1-0.7-1.5-1.3c-0.4-0.6-0.8-1.2-1-1.8c-0.2-0.7-0.4-1.5-0.4-2.2c0-0.5,0.1-1,0.2-1.5
	c0.1-0.5,0.3-1,0.6-1.4c0.3-0.4,0.6-0.9,0.9-1.2c0.4-0.4,0.8-0.7,1.2-1c0.4-0.3,0.9-0.5,1.4-0.6c0.5-0.2,1-0.2,1.6-0.2
	c0.5,0,1,0.1,1.5,0.3c0.4,0.2,0.8,0.5,1.2,0.8v-6l1.6-0.6h0.7V283h-2.2V281.6z M172.6,274.9c0-0.4-0.1-0.8-0.2-1.2
	c-0.2-0.4-0.4-0.7-0.7-1c-0.3-0.3-0.6-0.5-0.9-0.6c-0.3-0.1-0.7-0.2-1-0.2c-0.4,0-0.9,0.1-1.3,0.3c-0.4,0.2-0.7,0.6-1,0.9
	c-0.3,0.4-0.5,0.9-0.7,1.5c-0.2,0.6-0.3,1.2-0.3,1.9c0,0.7,0.1,1.4,0.3,2c0.2,0.6,0.4,1.2,0.8,1.7c0.3,0.4,0.7,0.8,1.1,1.1
	c0.4,0.3,0.9,0.4,1.4,0.4c0.2,0,0.5,0,0.7-0.1c0.2-0.1,0.5-0.1,0.7-0.2c0.2-0.1,0.4-0.2,0.6-0.4c0.2-0.1,0.3-0.3,0.5-0.5
	L172.6,274.9z"/>
<path class="st0" d="M186,282.9c-0.7,0-1.5-0.1-2.2-0.4c-0.7-0.3-1.3-0.7-1.8-1.2c-0.5-0.5-0.9-1.1-1.2-1.8
	c-0.3-0.7-0.4-1.4-0.4-2.1c0-0.9,0.1-1.7,0.4-2.5c0.2-0.7,0.6-1.4,1.1-2c0.5-0.6,1.1-1,1.8-1.3c0.7-0.3,1.5-0.5,2.3-0.5
	c1.4,0,2.7,0.5,3.6,1.4c0.4,0.4,0.8,1,1,1.5c0.2,0.6,0.4,1.2,0.4,1.8h-8.5c0,0.7,0.1,1.4,0.3,2.1c0.2,0.6,0.5,1.2,0.8,1.7
	c0.3,0.5,0.8,0.8,1.3,1.1c0.5,0.3,1.1,0.4,1.6,0.4c0.5,0,1-0.1,1.4-0.2c0.4-0.2,0.9-0.4,1.2-0.6c0.4-0.2,0.7-0.5,0.9-0.9
	c0.2-0.3,0.4-0.6,0.5-1l0.6,0.3c-0.2,0.6-0.4,1.1-0.8,1.6c-0.4,0.5-0.8,1-1.3,1.3c-0.5,0.4-1,0.7-1.6,0.9
	C187.1,282.9,186.6,283,186,282.9z M188.3,274.9c0-0.4-0.1-0.8-0.2-1.2c-0.1-0.4-0.3-0.7-0.6-1c-0.5-0.6-1.3-0.9-2.1-0.9
	c-0.3,0-0.7,0.1-1,0.2c-0.3,0.2-0.6,0.4-0.8,0.6c-0.5,0.6-0.8,1.4-0.9,2.2L188.3,274.9z"/>
<path class="st0" d="M200.6,282.2c0.3,0,0.6,0,0.9-0.1c0.2-0.1,0.5-0.2,0.7-0.4c0.2-0.1,0.3-0.3,0.4-0.5c0.1-0.2,0.2-0.4,0.2-0.6
	c0-0.3-0.1-0.6-0.3-0.9c-0.2-0.3-0.4-0.5-0.7-0.7c-0.3-0.2-0.6-0.4-1-0.6c-0.4-0.2-0.7-0.3-1.1-0.5s-0.8-0.4-1.1-0.6
	c-0.4-0.2-0.7-0.4-1-0.7c-0.3-0.3-0.5-0.6-0.7-1c-0.2-0.4-0.3-0.8-0.3-1.3c0-0.4,0.1-0.9,0.3-1.3c0.2-0.4,0.5-0.7,0.8-1
	c0.4-0.3,0.8-0.5,1.2-0.7c0.5-0.2,1-0.2,1.6-0.2c0.4,0,0.7,0,1.1,0.1c0.3,0.1,0.7,0.2,1,0.3c0.3,0.2,0.7,0.4,0.9,0.6
	c0.4,0.3,0.7,0.7,1,1.1l-0.8,0.7c-0.4-0.6-0.9-1.2-1.5-1.6c-0.8-0.5-1.7-0.7-2.6-0.4c-0.2,0.1-0.5,0.2-0.7,0.3
	c-0.2,0.1-0.3,0.3-0.5,0.5c-0.1,0.2-0.2,0.4-0.2,0.6c0,0.3,0.1,0.6,0.3,0.9c0.2,0.3,0.5,0.5,0.8,0.7c0.3,0.2,0.7,0.4,1.1,0.6
	l1.2,0.5c0.4,0.2,0.8,0.4,1.2,0.6c0.4,0.2,0.7,0.4,1,0.7c0.3,0.3,0.6,0.6,0.8,1c0.2,0.4,0.3,0.8,0.3,1.2c0,0.5-0.1,0.9-0.3,1.4
	c-0.2,0.4-0.5,0.8-0.8,1.1c-0.4,0.3-0.9,0.6-1.4,0.7c-0.6,0.2-1.3,0.3-1.9,0.3c-0.3,0-0.7,0-1-0.1c-0.4-0.1-0.7-0.2-1.1-0.3
	c-0.4-0.2-0.7-0.4-1.1-0.6c-0.4-0.3-0.7-0.7-1-1.1l0.9-0.8c0.2,0.3,0.5,0.7,0.8,1c0.2,0.3,0.5,0.5,0.8,0.7c0.2,0.2,0.5,0.3,0.8,0.4
	C200,282.1,200.3,282.2,200.6,282.2z"/>
<path class="st0" d="M211.9,265.5c0.2,0,0.3,0,0.5,0.1c0.2,0,0.3,0.1,0.4,0.2c0.1,0.1,0.2,0.2,0.3,0.4c0.1,0.1,0.1,0.3,0.1,0.4
	c0,0.2,0,0.3-0.1,0.4c-0.1,0.1-0.2,0.3-0.3,0.4c-0.1,0.1-0.3,0.2-0.4,0.2c-0.2,0.1-0.3,0.1-0.5,0.1c-0.2,0-0.3,0-0.5-0.1
	c-0.1-0.1-0.3-0.1-0.4-0.2c-0.1-0.1-0.2-0.2-0.3-0.4c-0.1-0.1-0.1-0.3-0.1-0.4c0-0.2,0-0.3,0.1-0.4c0.1-0.1,0.2-0.3,0.3-0.4
	c0.1-0.1,0.3-0.2,0.4-0.2C211.6,265.5,211.7,265.5,211.9,265.5z M210.8,271.7l1.6-0.6h0.6v11.6h-2.2V271.7z"/>
<path class="st0" d="M230.6,271.9v0.9h-2.2c0.2,0.3,0.4,0.6,0.5,1c0.3,0.9,0.3,1.9-0.2,2.8c-0.3,0.5-0.6,0.9-1.1,1.2
	c-0.5,0.4-1.1,0.6-1.7,0.8c-0.7,0.2-1.4,0.3-2.1,0.3c-0.3,0-0.6,0-0.9-0.1c-0.3,0-0.5-0.1-0.8-0.2c-0.2,0.2-0.4,0.4-0.5,0.6
	c-0.1,0.2-0.2,0.4-0.2,0.7c0,0.2,0.2,0.5,0.4,0.6c0.3,0.2,0.7,0.2,1,0.2l4.2,0.2c0.6,0,1.1,0.1,1.7,0.2c0.4,0.1,0.8,0.3,1.1,0.5
	c0.3,0.2,0.5,0.5,0.6,0.8c0.1,0.3,0.2,0.7,0.2,1c0,0.6-0.1,1.2-0.5,1.8c-0.3,0.6-0.8,1-1.3,1.4c-0.7,0.4-1.4,0.7-2.1,0.9
	c-0.9,0.2-1.9,0.3-2.8,0.3c-1.4,0.1-2.9-0.1-4.2-0.6c-0.9-0.4-1.4-1-1.4-1.7c0-0.3,0.1-0.6,0.2-0.9c0.2-0.3,0.4-0.6,0.6-0.8
	c0.3-0.3,0.5-0.5,0.8-0.8l0.9-0.7c-0.2,0-0.4-0.1-0.6-0.2c-0.2-0.1-0.3-0.2-0.5-0.3c-0.1-0.1-0.2-0.2-0.3-0.4
	c-0.1-0.1-0.1-0.3-0.1-0.5c0-0.3,0.1-0.5,0.2-0.7c0.1-0.3,0.3-0.5,0.5-0.7c0.2-0.2,0.5-0.4,0.7-0.6c0.3-0.2,0.6-0.3,0.9-0.5
	c-0.7-0.3-1.3-0.8-1.8-1.4c-0.4-0.6-0.7-1.3-0.6-2c0-0.6,0.1-1.1,0.4-1.6c0.3-0.5,0.6-0.9,1.1-1.3c0.5-0.4,1-0.7,1.6-0.9
	c0.6-0.2,1.3-0.3,2-0.3c0.3,0,0.7,0,1,0.1c0.3,0,0.6,0.1,0.9,0.2c0.3,0.1,0.5,0.2,0.8,0.3c0.2,0.1,0.4,0.2,0.5,0.3L230.6,271.9z
	 M221.4,282.6c-0.2,0.1-0.3,0.3-0.4,0.4c-0.1,0.1-0.2,0.3-0.3,0.5c-0.1,0.2-0.2,0.3-0.2,0.5c-0.1,0.2-0.1,0.3-0.1,0.5
	c0,0.3,0.1,0.5,0.3,0.7c0.2,0.3,0.5,0.5,0.8,0.6c0.4,0.2,0.9,0.3,1.4,0.4c0.6,0.1,1.2,0.2,1.9,0.2c0.7,0,1.3-0.1,2-0.2
	c0.5-0.1,1-0.3,1.5-0.5c0.4-0.1,0.7-0.4,0.9-0.7c0.2-0.2,0.3-0.5,0.3-0.7c0-0.5-0.3-0.9-0.8-1.1c-0.7-0.3-1.4-0.4-2.1-0.4
	c-0.6,0-1.1,0-1.6,0l-1.6-0.1l-1.3-0.1C221.8,282.7,221.6,282.6,221.4,282.6z M224.3,278.5c0.3,0,0.6-0.1,0.9-0.2
	c0.3-0.2,0.6-0.4,0.8-0.6c0.2-0.3,0.4-0.6,0.5-0.9c0.1-0.4,0.2-0.7,0.2-1.1c0-0.5-0.1-1-0.2-1.5c-0.1-0.4-0.3-0.9-0.6-1.2
	c-0.2-0.3-0.6-0.6-0.9-0.8c-0.6-0.4-1.4-0.4-2.1-0.1c-0.3,0.2-0.5,0.4-0.7,0.7c-0.2,0.3-0.3,0.6-0.4,1c-0.1,0.4-0.1,0.8-0.1,1.2
	c0,0.5,0.1,1,0.2,1.5c0.1,0.4,0.3,0.8,0.5,1.2c0.2,0.3,0.5,0.6,0.8,0.8C223.5,278.4,223.9,278.5,224.3,278.5z"/>
<path class="st0" d="M236.2,271.3h2.3v2.1c0.6-0.7,1.3-1.3,2.1-1.7c0.7-0.4,1.5-0.6,2.3-0.6c0.4,0,0.8,0.1,1.1,0.3
	c0.4,0.2,0.7,0.4,0.9,0.7c0.3,0.3,0.5,0.7,0.6,1.1c0.2,0.4,0.2,0.9,0.2,1.3v8.2h-2.3V275c0-0.6-0.1-1.2-0.5-1.7
	c-0.3-0.4-0.8-0.6-1.3-0.6c-0.3,0-0.5,0-0.8,0.1c-0.3,0.1-0.6,0.2-0.8,0.3c-0.3,0.1-0.6,0.3-0.8,0.5c-0.3,0.2-0.5,0.4-0.8,0.7v8.4
	h-2.3V271.3z"/>
<path class="st0" d="M276.4,43.5c1.5,2.6,2.9,5.2,4.3,7.7c1.3,2.6,2.5,5,3.6,7.6c-0.1-0.5-0.1-1.1,0-1.6c0.8-4.1-1.9-6.6-4-9.4
	C279.1,46.2,277.6,44.9,276.4,43.5z"/>
<path class="st0" d="M127.6,44.4c-3-2.2-6-4.6-9-7c0.1,0.4,0.2,0.8,0.3,1.2c0.2,0.6,0.6,1,1.1,1.3c0.9,0.3,1.5,0.7,1.5,1.7
	s-0.2,1.8-0.3,2.7h1.1c-0.1,0.7-0.2,1.4-0.3,1.9l2.4-1.2c0.1,0.1,0.2,0.3,0.3,0.4c-0.3,0.5-0.6,0.9-1,1.6l0.8-0.4
	c0,0.6-0.1,1.1-0.1,1.6c1-0.8,2-1.7,2.8-2.6c0.3-0.2,0.5-0.5,0.9-0.6C128,44.7,127.8,44.5,127.6,44.4z"/>
<path class="st0" d="M80.4,25.7c-0.2,0.2-0.3,0.5-0.2,0.8c0.4,0.6,0.7,1.3,1.1,1.9c0.4,0.4,0.8,0.7,1.3,0.9
	C81.8,28.1,81.1,26.9,80.4,25.7C80.4,25.7,80.4,25.7,80.4,25.7z"/>
<path class="st0" d="M167.5,79.2c8.4-4.9,16-10.3,22-17.8c4.7-5.7,7.8-12.5,9-19.7c1-6.7,0.2-13.4-1.4-20h-0.5
	c1.6,5.9,2.2,12,1.6,18.1c-0.9,7.3-3.8,14.1-8.2,19.9c-5.9,7.8-13.6,13-21.6,18.4c-4.7,3.1-9.7,5.8-14.9,7.9c-2.7,1.1-5.5,2-8.3,2.6
	c0.1,0.1,0.2,0.3,0.3,0.4c2.7-0.5,5.3-1.3,7.8-2.4C158,84.4,162.8,81.9,167.5,79.2z"/>
<path class="st0" d="M224.4,71.9c0.9,3.1,1.4,6.3,1.5,9.5c0.3,0.2,0.6,0.3,1,0.3c-0.4-1.2-0.7-2.4-1.1-3.7l2.4,1.2
	c-0.1-0.4-0.2-0.6-0.3-0.8l0.9,0.1c-1.4-6.3-4.1-12.5-3.6-19.1c0.7-10.7,7.5-21,13.7-29.6l1.7-2.4c-0.3-0.1-0.6-0.2-0.8-0.1
	c-1.3,0.6-1.8,0-2.1-1.2c-0.2-0.6-0.4-1.3-1.2-1.2c-5.1,8.1-9.7,16.6-12.2,25.6C222.4,57.7,222.6,64.5,224.4,71.9z"/>
<path class="st0" d="M137.6,76c0,0.1,0,0.1,0,0.1L137.6,76L137.6,76z"/>
<path class="st0" d="M131.2,56.5l-1.8-1.4c-0.4,0.7-0.5,1.5-0.4,2.3l0.3,0.3C130,56.9,130.5,56.4,131.2,56.5z"/>
<path class="st0" d="M191,54.7c-5.3,8.3-12.7,13.4-20.2,19.6c-5,4.2-10.6,7.6-16.6,10.2c-3.3,1.4-6.9,2.3-10.5,2.7l0.7,0.6
	c3.3-0.5,6.5-1.4,9.6-2.6c5.7-2.4,11.1-5.5,16-9.2c7.7-5.9,15.5-11.1,20.8-19.2c7.1-10.8,7.5-22.6,4.8-34.5l-0.5-0.3
	C197.8,33,197.7,44.4,191,54.7z"/>
<path class="st0" d="M131.1,61.4l0.1-0.2l-0.1-0.1C131.1,61.2,131.1,61.3,131.1,61.4z"/>
<path class="st0" d="M163.4,149.8l-0.6,1l0.4,0.1C163.3,150.5,163.4,150.1,163.4,149.8z"/>
<path class="st0" d="M235.7,79.5c0-0.1-0.1-0.2-0.1-0.4c0,0.2-0.1,0.4-0.1,0.6L235.7,79.5z"/>
<path class="st0" d="M166.8,140.5c0.1-0.1,0.2-0.3,0.1-0.4c-0.5,0.5-1.1,1.1-1.6,1.6c-3.4,3.9-5.7,8.3-7.8,13
	c-0.2,0.4-0.4,0.8-0.5,1.1c0.6,0.1,1.2,0.1,1.8,0.1c1.4-3.4,3.2-6.6,5.1-9.7C164.3,144.1,165.3,142,166.8,140.5z"/>
<path class="st0" d="M169.6,138.9c-0.1-0.4-0.1-0.7-0.2-1.1l-0.5,0.4C169.1,138.5,169.4,138.7,169.6,138.9z"/>
<path class="st0" d="M133.2,62.6l-0.2-0.2l-0.3,0.6C132.8,62.8,133,62.7,133.2,62.6z"/>
<path class="st0" d="M157.3,152.2c1.9-4.6,4.6-8.8,8-12.4c0.6-0.6,1.2-1.2,1.8-1.7c0-0.3,0.1-0.7,0.1-1.1l0.6,0.5
	c0.9-0.7,1.8-1.4,2.8-2c-0.2-0.1-0.5-0.2-0.7-0.3c-1-0.3-1.7-0.9-1.6-2l3.6,1.5c0-0.1,0.1-0.3,0.2-0.4c-0.5-0.1-0.9-0.3-1.4-0.5
	l2.8-3.4l-0.3-0.2l-1.7,0.9c0-0.1-0.1-0.1-0.1-0.2c0.4-0.4,0.8-0.8,1.4-1.3l-2.7,0.7c0-0.1,0-0.1,0-0.2l2.3-1.5l-2.1-1.3l2.4-1.1
	c-0.5-0.3-0.7-0.5-1-0.6l0.4-0.2c-0.1-0.3-0.2-0.5-0.3-0.8c-2.1,1.2-4.1,2.5-5.9,4c-2.3,1.9-4.5,3.9-6.6,6
	c-0.7,4.9-1.3,9.6-3.1,13.9l-4.4,0.5l1.4-3.5l1.1,1.4c0.2-1.3,0.3-2.4,0.5-3.4c0.5-1.7,1.7-3.2,1.2-5.1c-0.6,0.8-1.3,1.6-1.8,2.5
	c-1.5,2.2-1.9,4.9-2.5,7.5c-1.1,4-2.7,7.8-4.7,11.4c-0.1,0.3-0.3,0.5-0.5,0.8c0.9-0.5,1.9-0.6,2.9-0.4c0,0,0.1-0.1,0.2-0.2l-1-0.4
	l1.7-0.1c0-0.1,0.1-0.1,0.1-0.2l-1.6-0.7l0.5-0.6l2.2,0.3c0-1-0.1-2-0.2-3.1c1.6,0.2,3.2,0.6,4.8,0.9
	C156.2,154.5,156.8,153.3,157.3,152.2z"/>
<path class="st0" d="M151.8,129.7c-2.5,3.3-4.1,7-5.8,10.6c-0.2,2.4-0.7,4.8-1.5,7c-0.6,1.4-1,2.9-1.7,4.3c-0.4,0.8-1.1,1.5-1.8,2
	c-1.2,0.9-2.7,0.7-4,0.3c-0.9-0.4-1.9,0-2.3,0.9c0,0,0,0.1-0.1,0.1c-0.5,1-1.1,1.9-1.7,2.9c-0.5,0.7-0.4,1.7,0.2,2.2c0,0,0,0,0.1,0
	c5.8-2.3,10.7-7.6,13.4-12.7c2.2-4.2,3.5-8.9,6.1-13c3.7-5.8,8.7-10.7,14.4-14.4c1.9-1.2,3.8-2.4,5.9-3.5c0-0.4-0.1-0.7-0.1-1.1
	l1.7,0.3l0.3-0.1l-1.4-0.9c0,0,0.1-0.1,0.1-0.1l0.9,0.2c0,0,0-0.1,0-0.1l-1.6-1.2l1.8-0.8l-0.4-0.4c-1.6,1-3.2,2-4.9,3
	C162.8,118.8,156.5,123.5,151.8,129.7z"/>
<path class="st0" d="M157.1,136.5c-0.3,0.4-0.6,0.7-0.9,1.1c0.1,0.1,0.1,0.2,0.1,0.3C156.7,137.4,156.9,137,157.1,136.5z"/>
<path class="st0" d="M172.1,136.2c-0.1-0.1-0.2-0.1-0.4-0.2l-1.2,0.9C171.1,137,171.7,136.7,172.1,136.2z"/>
<path class="st0" d="M153.4,134.9c-2.9,4.2-4.2,9.7-6.5,14.2c-2.6,4.9-6.4,9.1-11.1,12.1c1,0.3,2.1,0.4,3.1,0.3
	c1.7-0.1,3.4-0.2,5.1-0.3h0.1c1-1.4,2-2.9,2.8-4.4c1.8-3.3,3.2-6.8,4.1-10.5c0.7-2.5,1-5,2.5-7.1c3.5-4.7,7.7-8.9,12.3-12.4
	c2.3-1.7,4.7-3.2,7.2-4.5l-1.6-0.6l2.1-1c-0.4-0.8-0.6-1.2-0.9-1.7c0.7-0.2,0.5-0.5,0.4-1.1v-0.1c-2.2,1.2-4.4,2.5-6.4,3.8
	C161.6,125.1,157,129.6,153.4,134.9z"/>
<path class="st0" d="M285.8,96.3c-1.5-3.2-3.1-6.3-4.7-9.4c-3.8-7.5-10.2-14.8-17.7-18.8c-7.6-4.2-17.4-2.6-17.8,7.8
	c-0.3,6.9,2.8,13.8,2.7,20.3c0,2.1-0.4,4.2-1.2,6.1c0.2,0.7,0.4,1.4,0.5,2.1c1-1.7,1.6-3.6,1.8-5.6c0.6-6.2-2-13.1-1.8-19.7
	c0.2-10.1,9.2-11.9,16.7-7.7c7.2,4,13.2,11.3,16.9,18.6c1.5,3.1,3,6.1,4.5,9.2c0-0.7,0-1.4-0.1-2.1c0-0.2,0-0.4,0.1-0.5L285.8,96.3z
	"/>
<path class="st0" d="M111,25.9c3.1,0.1,5.1,2.6,5.9,4.8c3.9,3,7.9,5.9,11.9,8.4c11.8,7.6,24.2,12,35.4,1.3c4.5-4.3,10-9.9,11.4-16.4
	c-0.2,0-0.5,0-0.7-0.1c-1.2-0.6-2.4-1.4-3.6-2.1c-0.9-0.6-1.8-1-2.8-0.2c-0.2,0.1-0.4,0.2-0.6,0.1c-1-0.7-2.3-0.7-3.3-0.1
	c-0.5,0.3-1,0.3-1.3,0c-0.7,1.6-1.7,3-2.8,4.4c-7.8,9.7-19.8,7.2-30.4,2.3c-11-5.1-21.1-12.4-30.8-20.1c-0.3,0.5-0.5,1-0.5,1.5
	c0,0.2-0.1,0.3-0.3,0.5c-0.8,0.7-1.5,1.5-2.2,2.2C101,17.1,105.9,21.7,111,25.9z"/>
<path class="st0" d="M100.3,28.6c0.6-0.3,1.2-0.5,1.9-0.8l-1.6-1.8c-2.9-3.2-5.7-6.3-8.5-9.6c0,0-0.1,0.1-0.1,0.1
	c-0.3,0.3-0.7,0.5-1,0.8C93.8,21.2,97,24.9,100.3,28.6z"/>
<path class="st0" d="M86.9,30.2c0.7,0.2,1.4,0.3,2.1,0.4s1.2,0.2,1.9,0.3c-2.3-3.1-4.5-6.3-6.6-9.5c-0.7,0.6-1.3,1.2-1.8,1.8
	C83.9,25.7,85.4,28,86.9,30.2z"/>
<path class="st0" d="M130.1,27c10.4,4.6,22,6.4,29.6-2.6c1.1-1.2,2-2.6,2.6-4.1c-0.2-0.2-0.5-0.4-0.7-0.5c-1.2-0.2-2.4-0.4-3.6-0.6
	c-0.2,0-0.4-0.2-0.7-0.3c-0.5-0.1-1.1-0.2-1.6-0.3c-6.4,7.8-17.2,6.5-25.7,3.4c-10.1-3.6-19.3-9.5-28.2-15.6c-0.7,0.3-1.4,0.7-2,1.2
	C109.3,15,119.2,22.1,130.1,27z"/>
<path class="st0" d="M172.3,108.4c-6.7,4.3-14.3,8.2-19.7,14c-2.1,2.2-3.9,4.7-5.5,7.3c-0.2,2.6-0.5,5.2-0.8,7.8
	c1.6-3.7,3.1-7.1,5.9-10.3c4.8-5.5,11.4-9.8,17.9-13.6c1.8-1.1,3.5-2.1,5.2-3.3l0.4-0.4c-0.8-0.3-1.6-0.5-2-0.9
	c-0.2-0.5-0.2-1,0-1.5L172.3,108.4z"/>
<path class="st0" d="M281.2,112.5c-3-5.4-5.6-12.4-10.8-15.4c-5.8-3.4-9.4,1.1-11.7,6.8c-1.5,3.5-3.6,6.6-6.2,9.4
	c0.7,0.4,1.2,0.9,1.7,1.5c0.3,0.5,0.7,0.9,1.2,1.2c1.5-1.5,2.8-3.1,4-4.8c3.3-4.9,6.8-9.3,12.2-5.3c4.2,3,7,8.4,9.4,13.3
	c3.2,6.4,5.4,13.3,8.6,19.8c1.1,2.2,2.3,4.5,3.5,6.7c-0.1-1.9,0.1-3.8,0.5-5.6c0-0.5,0-1-0.1-1.5c0-0.2,0-0.3,0-0.5
	c-1.2-2.1-2.3-4.2-3.4-6.4C287,125.2,284.6,118.5,281.2,112.5z"/>
<path class="st0" d="M286.2,156.9c-0.5-1-1-1.9-1.5-2.9l-0.8,0.4c0.7,1.3,1.4,2.6,2.1,3.9c0.5,0.9,1.1,1.9,1.7,2.8h0.2
	c0.2,0,0.5-0.1,0.7-0.1C287.7,159.6,286.9,158.2,286.2,156.9z"/>
<path class="st0" d="M182.8,21.5c-0.4,0.2-0.7,0.4-1,0.7c0.4,0.1,0.8,0.2,1.2,0.4C183,22.2,182.9,21.8,182.8,21.5z"/>
<path class="st0" d="M129.6,48.4c0-0.8,0.2-1.5,0.6-2.1l-1.4-1c0.2,0.2,0.3,0.5,0.4,0.8c0.1,0.7,0.1,1.5,0,2.2L129.6,48.4z"/>
<path class="st0" d="M286.4,136c0,0.1,0,0.2,0,0.3c0.7,5.1,0.8,10.3,0.4,15.5c1.5,2.9,3.1,5.7,4.6,8.5c0.7-0.2,1.3-0.7,1.7-1.3
	c0.4-0.5,0.9-0.9,1.4-1.3l0.5,0.1c-0.7-2-1.3-4.1-2-6.2l0.8-0.1c0-0.2-0.1-0.4-0.1-0.6c-1.6-3-3.2-5.9-4.7-9
	C288.1,140.1,287.2,138,286.4,136z"/>
<path class="st0" d="M285.6,133.8c-1.5-4-3-8.1-4.8-12.1c-2.2-4.8-5.1-9.9-9.2-12.6c-5.5-3.5-8.3,1-12.4,4.9
	c-0.9,0.8-1.7,1.7-2.5,2.6c1,0.4,1.9,0.9,2.7,1.6c1.2,1.2,2.3,2.5,3.3,3.8c6.9-4.1,13.2,1.7,16,10.3c1.6,5,3.5,10,5.8,14.8
	c0.5-2.4,0.1-4.9,0.6-7.3c0.4-2-0.7-4.3-1.1-6.4c-0.1-0.4-0.2-0.8-0.5-1.5C284.4,132.5,285,133.1,285.6,133.8z"/>
<path class="st0" d="M280.4,61.5c-4.4-8.2-12.1-16.6-19.1-22.7c-9.8-8.5-18.7-2.4-24.8,7.3c-5,7.9-8,16-5.6,25.1c0.5,2,1.3,4,2,6.1
	l1.6-0.2c-0.2,0.6-0.4,1-0.7,1.7l1.7-1.4l0.1,0.2l-0.8,1.3l0.2,0.1l0.9-0.9c-0.4-1.1-0.7-2.1-0.9-3.1c-1.9-7.2-2.1-13.5,1.6-20.2
	c5.4-9.8,14.4-14.6,24.1-7.7C268.2,52.4,276,60,280.3,68c3.1,5.7,5.5,11.8,8,17.8c0-1-0.1-2-0.4-2.9c-0.8-2-0.9-4.1-0.3-6.1
	C285.4,71.5,283.1,66.5,280.4,61.5z"/>
<path class="st0" d="M280.4,70c-4.3-7.9-12.1-15.4-19.6-20.4c-9.5-6.4-18.6-2.1-23.7,7.7c-3.5,6.7-2.3,13.2-0.4,20.3
	c0.1,0.4,0.2,0.8,0.3,1.1c0.4-0.5,0.8-1,1.2-1.4l0.2,0.1c-0.2,0.6-0.5,1.2-0.8,1.8l1,0.4c-0.1,0.3-0.2,0.5-0.3,0.9l0.8-0.3
	c-0.1,0.4-0.1,0.8-0.2,1.1l1.2-0.3c0.1,0.4,0.1,0.9,0.1,1.3c0,0.4-0.1,0.9-0.1,1.4l1.5-0.4v2.3l0.7-0.2c-0.1,0.4-0.2,0.7-0.2,1
	l0.7-0.2c-0.1,0.3-0.1,0.5-0.2,0.8c1-0.5,1.5-0.2,1.4,0.8c0,0.5-0.1,1-0.1,1.5c-0.6,2.6-0.3,5.3,1,7.6c0.6,1.2,1.2,2.4,1.6,3.6
	c0.7-2.1,0.9-4.3,0.8-6.5c-0.3-6.7-4-13.9-3.4-21c0.8-10.4,11-12,18.7-7.8c7.8,4.4,14.1,11,18.3,19c1.8,3.6,3.5,7.2,5.2,10.8
	c0.8-2.1,1.4-4.3,1.8-6.5c0.1-0.5,0.2-1,0.2-1.5C285.8,81.5,283.4,75.5,280.4,70z"/>
<path class="st0" d="M277.7,135.6c-1.2-4-2.3-8.5-6.1-10.8c-2.2-1.5-5.1-1.6-7.5-0.3c0,0,0,0.1,0,0.1c0,0.5-0.1,1-0.1,1.4
	c2.3-1.4,5.3-1.3,7.5,0.2c3.6,2.3,4.5,6.9,5.7,10.7c1.5,5.5,3.5,10.8,5.9,15.9c0.1-0.5,0.2-1.1,0.2-1.6
	C281.1,146.2,279.2,140.9,277.7,135.6z"/>
<path class="st0" d="M185.8,35c-3.6,12.3-14.4,21.6-23.7,29.4c-9.5,7.9-19.6,4.7-28.4-1.5l0,0c0.2,0.2,0.4,0.4,0.6,0.5
	c0.4,0.3,0.8,0.6,1.2,1c0.5,0.6-0.2,2,1.5,1.7c-1.4,2.4-1,4.6-0.2,6.8c1.7,1.1,3.5,2,5.3,2.7c6.2,2.3,12.6,0.6,18-3.7
	c6.6-5.3,12.4-11.6,18-18c3.9-4.4,7.8-8.5,10-14c2.2-5.5,2.4-11.5,0.7-17.2l0,0c-0.6,0.7-1.5,0.7-2.2,0.2c-0.1-0.1-0.2-0.2-0.3-0.4
	c-0.1-0.1-0.2-0.3-0.3-0.4C187,26.4,187,30.9,185.8,35z"/>
<path class="st0" d="M184.1,31.7c-2.4,11.5-12.6,20.1-20.9,27.3c-5.2,4.5-10.9,6.9-17.8,5c-4.9-1.5-9.4-3.9-13.4-7.1l-1.5,1.5
	l0.5,0.4l0.3-0.2c0,0.1,0,0.3,0,0.4l0.9,0.7c0.1-0.1,0.1-0.2,0.2-0.3l1.4,1.4c3.3,2.4,7.1,4.3,11,5.6c6.9,2.1,12.7-0.1,17.9-4.5
	c8.9-7.5,19.4-16.5,22.4-28.5c1-4,0.9-8.2-0.3-12.1c-0.3-0.2-0.7-0.2-1-0.2C184.7,24.6,184.8,28.2,184.1,31.7z"/>
<path class="st0" d="M205.2,22.5l0.4,0.5l-0.4,0.2c0.5,7.2,0.3,14.5-0.7,21.7c-1.9,13.6-9.2,30.2-23.5,34.5
	c-5.7,1.7-11.4,3.4-16.6,6.3c-4.5,2.5-9,5.5-13.5,7.9c-1.2,0.6-2.4,1.2-3.6,1.7c0,0.7,0.1,1.3,0.2,2c0.8-0.4,1.7-0.9,2.5-1.3
	c9.2-5.1,18.3-12,28.8-14.6c8-2,13.9-5.4,18.5-12c3.5-5.2,6.1-11.1,7.5-17.2c1.5-6.5,2.3-13.2,2.3-19.9c0.1-3.5,0.1-7-0.1-10.4
	c-0.2,0.3-0.3,0.6-0.4,0.9c-0.5-0.3-1-0.6-1.5-0.9C205.2,22,205.2,22.2,205.2,22.5z"/>
<path class="st0" d="M214.6,69.2c-0.3,5.9-1.2,11.9-7,14.8c-4.6,2.2-10.7,1.6-15.7,2.4c-5.2,0.8-10,3.8-14.6,6.4
	c-0.2,0.1-0.3,0.2-0.5,0.3c0.2,0,0.5-0.1,0.7-0.1c1.7-0.6,3.4-0.8,5.2-0.7c3.3-2.1,6.9-3.6,10.6-4.5c3.8-0.6,7.6-0.9,11.4-1
	c3.2-1.1,6.2-2.4,8.5-5.2c0.3,0.7,0.5,1.3,0.8,2c1.9-2,2.7-4.9,3-8.3c0.5-7.5-0.4-15.3,1-22.9c1.8-9.9,5.3-19.5,8.4-29.3l-2.1-0.2
	c-0.1,0-0.2,0-0.3,0.1c-0.2,0.1-0.5,0.2-0.7,0.3c-1.7,6.7-3.6,13.3-5.2,20C216.2,51.6,215,60.3,214.6,69.2z"/>
<path class="st0" d="M217.9,76.5c-0.1,1.7-0.5,3.3-1.2,4.9l0.6,1.3c0.3-0.6,0.5-1,0.7-1.4l1.9,1.7c-0.1-0.8-0.2-1.2-0.3-1.9l1.1,1.4
	c0-0.4,0-0.6,0-0.9l2,0.9c-0.1-0.6-0.2-1.1-0.2-1.6l1.8,0.9l-0.8-3.3c0.6,0.6,1.1,1.3,1.5,2.1c-0.2-3.5-0.8-7-1.7-10.4
	c-1.6-7.4-1.3-15,1-22.2c2.7-8.1,6.3-15.8,10.7-23.1l-1.6-0.2c-0.8-1.6-2.8-2.3-4.5-1.6c-0.2,0.1-0.5,0-0.7-0.1l-0.8-0.1
	c-3.5,10.3-7.3,20.6-9,31.1C217.2,61.5,218.6,69.2,217.9,76.5z"/>
<path class="st0" d="M107.6,26.3c0.7-0.1,1.3-0.2,2-0.3c-4.8-4.2-9.4-8.6-13.8-13.1L95,13.7C99,18.1,103.3,22.3,107.6,26.3z"/>
<path class="st0" d="M290.4,122.7l-0.3-0.4c1.2,2.3,2.5,4.7,3.7,7c0-1.5-0.5-3-1.5-4.1C291.7,124.3,291,123.5,290.4,122.7z"/>
<path class="st0" d="M92.4,31.1c0.3,0,0.7,0,1-0.1l0.2-0.1c-2.6-3.5-5.2-7-7.7-10.6l-0.7,0.5C87.4,24.4,89.9,27.8,92.4,31.1z"/>
<path class="st0" d="M275.6,154.4c1.6,3.2,3.5,6.2,5.6,9.1c0-0.1,0-0.2,0-0.3c0-0.5,0-1,0.1-1.5c0.6,0.9,0.4,1.9,0.7,2.9
	c0.3,0.4,0.5,0.7,0.8,1.1c-0.2-1.4-0.4-2.6-0.6-3.9c-2.3-3.5-4.3-7.2-6-11.1C276.1,152,275.9,153.2,275.6,154.4z"/>
<path class="st0" d="M276,140.2c-1-3.5-1.7-8.4-5-10.6c-2.4-1.7-4.9-1.3-7.2-0.1c0,0.4-0.1,0.9-0.1,1.3c2.2-1.1,4.6-1.4,6.9,0.2
	c3.2,2.2,3.8,7.2,4.8,10.6c0.1,0.3,0.2,0.6,0.3,0.9c0.2,0.5,0.4,1,0.5,1.5c2.2,6.1,5,11.9,8.5,17.4h1
	C281.5,154.7,278.3,147.6,276,140.2z"/>
<path class="st0" d="M293.5,132.5c-1-1.8-2-3.7-3-5.5c-3.2-6.4-5.9-12.9-9.4-19.1c-3.3-5.8-5.9-13.2-11.5-16.5
	c-6.1-3.6-11.1,0.1-12.7,7.1c-1,5-3,9.7-6,13.8c0.2,0.2,0.4,0.3,0.6,0.5c2.9-3.4,5.1-7.4,6.4-11.7c1.9-6.3,6-10.6,12.1-6.9
	c5.3,3.2,7.8,10.3,11,15.9c3.5,6.1,6,12.7,9.2,19c1,2,2,3.9,3.1,5.8C293.4,133.9,293.4,133.2,293.5,132.5z"/>
<path class="st0" d="M84.2,29.6l1,0.2c-1.2-1.9-2.4-3.8-3.5-5.7c-0.1,0.2-0.3,0.4-0.5,0.6C82.2,26.4,83.2,28,84.2,29.6z"/>
<path class="st0" d="M102.5,27.7c1.3-0.5,2.6-0.9,4-1.2c-4.1-4-8.2-8.1-12-12.3c-0.7,0.7-1.4,1.3-2.2,2C95.6,20.1,99,24,102.5,27.7z
	"/>
<path class="st0" d="M175.5,21.4l0.3,0.2c0-0.1,0-0.1,0-0.2H175.5z"/>
<path class="st0" d="M96.4,29.5c0.1,0.2,0.3,0.4,0.4,0.6c1-0.4,2-0.8,2.9-1.2l0.2-0.1l-1.1-1.3c-2.8-3.3-5.6-6.6-8.4-10
	c-0.8,0.5-1.6,1-2.4,1.4C90.8,22.6,93.6,26,96.4,29.5z"/>
<path class="st0" d="M174.8,22.7l0.9,0.7c0-0.2,0.1-0.4,0.1-0.7l-0.9-0.3L174.8,22.7z"/>
<path class="st0" d="M94.6,30.6L94.6,30.6c0.4-0.1,0.7-0.2,1-0.3L95.3,30c-2.8-3.5-5.5-7-8.1-10.7l-0.8,0.4
	C89.1,23.6,91.9,27.1,94.6,30.6z"/>
<path class="st0" d="M266.8,79.3c-7.1-3.3-13.8-0.4-14.2,8.2c-0.3,5.7,0.4,12.3-1.6,17.4c-0.6,1.5-1.4,2.8-2.5,4
	c0.5,1,1.2,1.9,2,2.7c3.2-4.6,5-10.7,5.9-15.9c1.2-7.2,6.2-11,12.6-7.5c6,3.3,8.8,11,12.2,17.2c1.1,1.9,2.1,3.9,3.1,5.8
	c0-0.7,0-1.5,0.1-2.2c0.2-1.1,0.4-2.3,0.6-3.4c-1.2-2.4-2.4-4.7-3.5-7.1C278,91.4,274.1,82.6,266.8,79.3z"/>
<path class="st0" d="M125.1,1.9c-0.4,0-0.8-0.1-1.2-0.3c-0.4-0.3-0.9-0.4-1.4-0.4c-1.9,0-3.8,0.1-5.7,0.2c-0.3,0-0.5,0-0.8,0.1
	C119.1,2.2,122.3,2.7,125.1,1.9z"/>
<path class="st0" d="M127.6,0.9h0.8c0-0.2,0.1-0.4,0.2-0.5L127.9,0c-0.2,0.4-0.5,0.8-0.8,1.1L127.6,0.9z"/>
<path class="st0" d="M136.7,7.8c-1.2-1.3-2.7-2.2-4.4-2.7c0-1.1,1.8-1.3,1.4-2.6l-4.6,0.5c0.2-0.5,0.5-0.9,0.7-1.4l-0.4,0.1
	c-3.7,3.7-10.1,2-15.2,0.3c-1.4,0.4-2.7,0.7-4.1,1.1l-0.5,0.1C117.8,6.3,131.4,10.8,136.7,7.8z"/>
<path class="st0" d="M108.6,3.5c-1,0.2-1.9,0.5-2.9,0.8c-0.2,0.1-0.4,0.2-0.5,0.3c7.6,4.2,15.5,8.1,23.9,10.1
	c5.1,1.2,12.7,2.2,16.8-1.7c-0.6-0.5-1.3-0.8-2-0.9c-0.1,0-0.3-0.1-0.3-0.2c-1.3-1.8-3.1-2.4-5.1-2.8
	C132.6,12.8,117.4,7.2,108.6,3.5z"/>
<path class="st0" d="M218.9,23.5l-2-0.7c-1.2,10.4-3.1,20.8-5.1,31.1c-1.2,6.5-2.5,13.7-5.3,19.6c-5.7,11.5-18.4,9.6-29,14
	c-10.1,4.2-19.1,11.8-28.1,18.3c-0.1,0.5-0.2,1.1-0.3,1.6c-0.3,1.5-0.4,3.1-0.3,4.6c8.1-7,16.9-13.2,26.2-18.6c0-0.1,0-0.2-0.1-0.4
	h0.7l1.5-0.9c4.5-2.6,9.3-5.4,14.5-6.1c5-0.7,11.3-0.2,15.7-2.9c5.5-3.2,6.2-9.5,6.5-15.4c0.6-9.1,2-18.2,4.2-27.1
	c1.4-5.9,3-11.7,4.5-17.6c-0.8,0.1-1.6-0.1-2.3-0.5c-0.4-0.1-0.9-0.2-1.4-0.2l0.4,0.7L218.9,23.5z"/>
<path class="st0" d="M281.3,92.6c-3.4-7.2-9.1-14.4-16.1-18.5c-7.4-4.2-15.7-2.1-15.9,7.6c-0.1,6.4,2.1,13.2,0.9,19.1
	c-0.3,1.9-1.1,3.7-2.3,5.2c0,0.3,0.1,0.6,0.1,1c0,0.3,0.1,0.6,0.1,0.9c1.3-1.3,2.2-2.9,2.7-4.7c1.7-5.5,0.1-12.6,0.2-18.5
	c0.1-9.1,7.8-11.8,15-7.4c6.8,4.1,12,11.3,15.3,18.3c1.3,2.7,2.6,5.4,3.9,8c0.1-0.7,0.2-1.5,0.3-2.2
	C284.1,98.5,282.7,95.6,281.3,92.6z"/>
<path class="st0" d="M162.7,151c-0.8,1.6-1.6,3.2-2.3,4.8c0.4-0.1,0.7-0.2,1.1-0.3C162.6,154.3,163,152.6,162.7,151z"/>
<path class="st0" d="M207.9,33.1c-0.1,6.8-0.9,13.5-2.5,20.1c-1.6,5.9-4,12.1-7.7,17c-4.8,6.5-10.7,9.5-18.6,11.5
	c-10.5,2.6-19.5,9.7-28.7,14.8c-0.8,0.4-1.5,0.8-2.3,1.2c0.2,1.6,0.4,3.1,0.5,4.7c9.1-5.9,18.1-13.4,28.5-17.1
	c5.6-2,11.8-2.1,17.3-4.7c6.1-2.8,8.4-8.4,10.9-14.3c3-6.9,4.2-14.7,5.3-22.1s2.2-14.9,2.6-22.4l-1.6-0.5c-1.1-0.3-2.2-0.3-3.3-0.1
	c-0.1,0-0.2,0.1-0.3,0.2C208,25.2,208,29.1,207.9,33.1z"/>
<path class="st0" d="M148.8,16.3c-0.6-0.5-1.2-1.1-1.6-1.8c-4.5,4.2-12.3,2.8-17.9,1.4c-8.7-2.2-16.8-6.4-24.6-11
	c-0.7,0.5-1.4,1-2.2,1.3c8.7,5.8,17.7,11.2,27.5,14.6c7.5,2.6,16.7,3.8,22.8-1.7l-0.3,0.1c-0.7-0.7-1.5-1.2-1.7-1.9
	C150.4,16.1,149.6,16.1,148.8,16.3z"/>
<path class="st0" d="M156,110.3c-2.8,2.2-5.4,4.7-7.8,7.3c-0.1,1.7-0.3,3.4-0.4,5c-0.2,1.9-0.4,3.7-0.6,5.5c1.6-2.5,3.5-4.8,5.5-7
	c5.5-5.8,13.4-9.7,20.1-14.1l1.1-0.8c0-0.3-0.1-0.6-0.3-0.9c-0.2-0.4-0.3-0.8-0.3-1.3l1.4,0.2c-1-2.3-0.6-4.4-0.2-6.6
	C168.2,101.7,161.8,105.7,156,110.3z"/>
<path class="st0" d="M284.4,60.7c0.5,1.2,1,2.3,1.5,3.5c-0.1-1.2-0.5-2.3-1.3-3.2C284.5,60.9,284.4,60.8,284.4,60.7z"/>
<path class="st0" d="M287.8,70.1c-0.4-1.2-0.7-2.4-1-3.6c-1.8-4.6-3.9-9.1-6.2-13.5c-2.5-4.6-5.2-9-8.1-13.4
	c-0.4-0.2-0.8-0.4-1.3-0.5c-0.8-0.2-1.7,0.1-1.8-1.2c-0.1-0.6-0.8-1.2-1.2-1.8c-0.2,0.4-0.5,0.8-0.8,1.3c-0.4-0.5-0.6-0.9-0.9-1.2
	c-1.3-0.7-2.7-1.2-4.1-1.3c-0.5,0.1-0.9,0-1.3-0.2c-1.3-1-2.4-2.2-3.5-3.4c-0.8-1.1-2.1-1.7-3.4-1.4c-1,0.3-2.1-0.2-2.5-1.1
	c-1.4-2-3-2.3-5-1.1c-0.4,0.2-0.8,0.1-1.2-0.1c-0.7-0.6-1.7-0.8-2.6-0.5c-1.6,1.9-3.1,3.8-4.5,5.8c-5.8,8.2-11.9,18.1-12.4,28.5
	c-0.3,5.8,2.4,11.7,3.8,17.2h0.1c0-0.3-0.1-0.6-0.1-0.8l2.5-0.4c-1.1-2.8-2-5.7-2.7-8.7c-1.9-9.1,2.2-17.8,7.3-25.5
	c3.1-4.6,8-11,14-11.9c4.3-0.6,7.9,2,10.9,4.8c6.9,6.4,14.5,15.1,18.9,23.4c2.7,5.2,5.1,10.7,7.4,16.3c0-0.1,0-0.1,0.1-0.2
	C288.9,73.8,288.4,72,287.8,70.1z"/>
<path class="st0" d="M274.8,158.3c-0.8,3.4-0.8,3.4-4,2.2c-1-0.4-2.1-0.2-2.9,0.5l-1.6,1.6c1.2,2.1,2.6,4.1,4.1,6c1-0.1,2-0.1,3-0.2
	s2.2-0.2,3.3-0.2c0.6,0,1.1,0,1.7-0.2c1.5-0.6,2.5-2,2.7-3.6c-2.1-2.9-4.1-5.9-5.8-9C275.2,156.4,275,157.4,274.8,158.3z"/>
<path class="st0" d="M181.2,92.2c0.5,0,1,0,1.5-0.1c2.6-0.2,5.1-0.6,7.6-1.2c3.2-0.9,6.2-2.3,9.4-3.3l1.6-0.5c-3.5,0-7,0.3-10.5,0.9
	C187.4,88.9,184.2,90.3,181.2,92.2z"/>
<path class="st0" d="M265.1,163.9c-0.6,0.4-0.7,1.2-0.3,1.8c0.9,1.5,1.8,3,3.8,3h0.8c-1.4-1.7-2.6-3.5-3.7-5.4L265.1,163.9z"/>
<path class="st0" d="M213.2,82.7l0.2,0.1c0-0.1,0-0.3,0-0.4C213.4,82.5,213.3,82.6,213.2,82.7z"/>
<path class="st0" d="M188.4,41.6c-2.7,6.1-7.1,10.6-11.7,15.5c-5.5,6-11.1,12.2-17.6,17.1c-5.6,4.2-12.2,5.8-18.4,3.2
	c-0.7-0.3-1.3-0.6-2-0.9c0.2,0.5,0.3,1.1,0.3,1.6c0,0.2,0,0.5,0,0.7c0.2,0.1,0.5,0.2,0.8,0.3c6.4,2.6,12.5,0.5,18.6-3
	c7.4-4.2,13-11.8,18.9-17.9c4.5-4.8,8.9-9.2,11.7-15.1c3.3-7.1,3-14.3,0.9-21.3c-0.2,0.1-0.4,0.3-0.6,0.4
	C191.1,28.6,191.4,35.2,188.4,41.6z"/>
<path class="st0" d="M190.3,47.9c-3.8,6.8-9.3,11.6-14.8,17c-5.9,5.8-11.4,13.6-19.5,16.4c-5.2,1.8-10.3,2.8-15.5,2.1
	c0.6,1,1.4,2,2.2,2.8c4.1-0.2,8.2-1.2,12-2.7c6.6-2.6,12-6.9,17.4-11.7c7.2-6.4,14.2-11.4,19.2-19.7c5.9-9.8,5.8-20.4,3-30.6
	c-0.7-0.3-1.4-0.4-2.2-0.3C194.7,30,195.1,39.2,190.3,47.9z"/>
<path class="st0" d="M189.4,44.8c-3.3,6.6-8.4,11.3-13.5,16.6c-5.6,5.8-10.7,12.6-17.8,16.8s-13.2,4.1-19,1.8
	c0.1,0.7,0.3,1.5,0.6,2.1c5.4,1.2,12.2,0.5,16.9-2.1c7-4,12.2-10.1,17.9-15.8s11.5-10.7,15.3-17.9c4.2-8.2,3.9-16.7,1.4-24.9
	c-0.2,0-0.4,0.1-0.6,0.2C193,29.1,193.3,37.1,189.4,44.8z"/>
<path class="st0" d="M176.9,22L176.9,22c0.4,0.2,0.6,0.7,0.6,1.2l-0.6-0.2c-0.5,7.9-7.2,14.5-12.5,19.5c-11.4,10.7-24,6-35.8-1.9
	c-3.8-2.5-7.5-5.3-11.2-8.2c0,0.2,0.1,0.3,0.1,0.5c0.1,0.7,0.3,1.5,0.4,2.2c3.4,2.8,6.8,5.4,10.2,7.8c1.1,0.8,2.1,1.5,3.2,2.2
	c0.5-0.4,1-0.8,1.5-1.2c0.1,0.7,0.4,1.3,0.2,1.7c-0.1,0.1-0.2,0.3-0.2,0.4c10.4,6.4,21.4,9.3,31.8-0.1c6.1-5.5,14-13,14.2-21.9v-0.3
	h-0.2c-0.1-1.5-0.4-2-1.6-2.2C176.9,21.6,176.9,21.8,176.9,22z"/>
<path class="st0" d="M179.6,25.2c-0.7,9.5-8.7,16.9-15.2,22.8c-10.7,9.6-22,6.2-32.6-0.7c-0.3,0.4-0.5,0.8-0.8,1.2
	c-0.3,0.6-0.4,1.2-0.3,1.8c0,0.9-0.1,1.4-1.1,1.1c-0.3-0.1-0.6-0.2-0.9-0.3c0.3,0.5,0.6,0.9,1.1,1.2c0.5,0.3,0.8,0.9,0.7,1.5
	c4.6,3.6,9.8,6.9,15.4,8.2c7,1.8,12.7-0.8,17.8-5.3c7.9-6.9,17.8-15.1,19.6-26.4c0.3-1.8,0.4-3.7,0.2-5.6c-0.1,0-0.2,0-0.3,0
	c-1.2-0.2-2.3-0.5-3.4-0.8C179.6,24.3,179.6,24.7,179.6,25.2z"/>
<path class="st0" d="M198.8,45.2c-1.6,7.3-5.1,14-10.2,19.4c-9.7,10.5-22.9,17.2-35.9,22.9c-2.3,1-4.6,1.8-7.1,2.4
	c0.1,0.4,0.1,0.8,0,1.1l0.5,0.1c0,0.2,0.1,0.4,0.1,0.6c2-0.6,3.9-1.4,5.7-2.3c4.6-2.2,9-4.9,13.6-7.3c7-3.7,15-6.5,20.9-11.5
	c5.8-5.1,10.1-11.6,12.5-18.9c2.4-7.4,3.1-15.3,2.1-23c-0.2-2.5-0.6-4.9-1-7.3c-0.7,0-1.4,0.1-2,0.1
	C199.7,29.5,200.4,37.2,198.8,45.2z"/>
<path class="st0" d="M177,87.1c5.5-2.3,11.6-2.7,17.4-4.5s8.9-5,11.5-10.2c3-5.9,4.1-13.4,5.4-20c1.9-9.9,3.8-19.9,4.8-29.8
	l-2.2-0.8c-0.5,7.7-1.6,15.4-2.9,23.1c-1.2,7.5-2.5,15.2-5.4,22.2c-2.5,5.8-4.9,11-11,13.6c-5.5,2.4-11.7,2.6-17.3,4.7
	c-10.4,3.8-19.3,11.3-28.4,17.3c0,0.8,0,1.7,0,2.5C157.8,98.8,166.9,91.2,177,87.1z"/>
<path class="st0" d="M203.4,40c-1,14.5-7.8,30.5-20.8,37.1c-5.7,2.9-12.5,4.4-18.3,7.5c-4.5,2.4-8.9,5.4-13.4,7.6
	c-1.4,0.7-2.8,1.4-4.3,2c0,0.1,0,0.2,0,0.3s0,0.3,0,0.5c1.3-0.6,2.5-1.1,3.7-1.8c4.6-2.3,9-5.3,13.5-7.8c5.3-2.9,11.2-4.5,17-6.5
	c14-4.9,21.2-21.1,22.9-35.1c0.8-6.8,1-13.6,0.5-20.4c-0.1,0.1-0.2,0.1-0.3,0.2c-0.2-0.5-0.4-0.9-0.8-1.3
	C203.7,28.2,203.8,34.1,203.4,40z"/>
<path class="st0" d="M148.5,113.7l-0.2,3c2.6-2.7,5.3-5.3,8.3-7.6c5.8-4.4,11.9-8.5,18.1-12.2c0.2-1,0.2-2,0.1-2.9
	c-9.3,5.5-18.1,11.9-26.3,19C148.5,113.2,148.5,113.5,148.5,113.7z"/>
<path class="st0" d="M202.3,33.6c0.2,14.2-5.3,31.6-17.4,40c-6,4.1-13.5,6.2-20,9.6c-4.5,2.4-8.9,5.2-13.5,7.4
	c-1.6,0.8-3.4,1.5-5.1,2.2c0,0.1,0,0.3,0.1,0.4c1.7-0.6,3.3-1.3,4.9-2.1c4.5-2.2,9-5,13.4-7.4c6.3-3.4,13.6-5.2,19.5-9
	c12.4-8,18.3-24.9,18.4-39.2c0-4.6-0.3-9.2-0.9-13.8l-0.5-0.1C201.8,25.5,202.2,29.5,202.3,33.6z"/>
</svg>
